<?xml version="1.0" encoding="UTF-8"?>
<svg version="1.1" viewBox="0 0 2048 474" width="1280" height="1280" xmlns="http://www.w3.org/2000/svg">
<path transform="translate(0)" d="m0 0h2048v474h-2048z" fill="#F9FBFB"/>
<path transform="translate(326,27)" d="m0 0h115v80l2 17 16 36 13 29 24 56 16 38 14 31 6 15 5 11 14 34 4 13 1 10-2 16-4 7-3 11-5 2-4-2-2-3-21 5h-8l-5-3-4-2 1 11-3 6-3 1-229-1-2-5 4-9v-5l-6 1-2 1h-7l-5-6-2-11-6-1-1-3-10 24-2 4-4-2-4-5-5-12-3-12v-11l3-14 30-70 11-26 13-30 15-34 9-20 13-30 12-27 7-17 1-5 1-14v-75z" fill="#F1FDFD"/>
<path transform="translate(1724,64)" d="m0 0h93l10 45 9 42 22 99 10 48 2 12 4 1 5-28 22-100 16-74 10-43 4-2h47l43 1v375h-59l-1-183v-49l1-49-4 12-13 64-9 42-10 49-13 61-10 51-1 2h-60l-2-2-7-37-10-49-11-51-14-68-9-43-6-33-3-1 1 14v270h-58l-1-1 1-374z" fill="#046BB8"/>
<path transform="translate(1440,64)" d="m0 0h182l46 1v64l-166 1v81h154v64l-14 1h-140l1 99h140l30 1 1 64h-235l-1-1v-331l1-43z" fill="#046BB8"/>
<path transform="translate(1128,65)" d="m0 0h63v147l119-1 1-1 1-145h62v375h-62l-1-27v-136h-120v163h-63z" fill="#046BB8"/>
<path transform="translate(938,59)" d="m0 0h30l17 3 16 5 17 8 14 10 15 15 7 10 9 16 6 14 9 27-12 5-33 10-17 4-3-9-5-14-7-13-10-11-14-9-12-4-6-1h-17l-14 3-14 7-10 8-9 12-8 16-6 18-3 15-3 31v35l2 21 5 25 6 19 8 16 9 11 10 8 14 7 14 3h13l12-3 12-6 12-11 7-8 8-16 5-15 5-20 9 3 30 12 21 8v4l-5 19-5 15-6 13-8 15-10 14-11 12-17 13-17 8-21 6-14 2h-31l-16-3-17-6-16-8-12-9-8-7-7-8-10-13-8-13-8-16-6-15-7-23-4-19-3-27v-42l3-32 6-29 9-26 11-23 8-12 9-12 12-12 10-9 14-9 17-7 22-5z" fill="#046BB8"/>
<path transform="translate(55,64)" d="m0 0h168l22 1 1 1v63h-149l1 6 1 81h127v64l-9 1h-119v158l-1 1h-62l-1-1v-305l1-69z" fill="#046BB8"/>
<path transform="translate(503,64)" d="m0 0 74 1 32 64 18 37 8 16 13 27v2h2l2-6 14-30 22-45 11-24 8-16 12-25 70-1 1 3-10 21-9 17-8 16-14 26-15 29-10 19-21 41-18 35-5 8-1 10v151h-63l-1-160-8-16-18-35-15-28-13-24-8-15-8-16-16-31-10-19-14-27z" fill="#046BB7"/>
<path transform="translate(326,27)" d="m0 0h115v80l2 17 16 36 13 29 24 56 16 38 14 31 6 15 5 11 14 34 4 13 1 10-2 16-4 7-3 11-5 2-4-2-9-21-12-27-13-29-13-30-16-37-12-26-9-20-12-28-19-43-21-48-1-1h-36l-8 15-13 29-10 23-14 31-5 12-11 25-12 27-17 38-7 17-28 63-7 16-8 18-4-2-4-5-5-12-3-12v-11l3-14 30-70 11-26 13-30 15-34 9-20 13-30 12-27 7-17 1-5 1-14v-75z" fill="#08ABEC"/>
<path transform="translate(312,347)" d="m0 0h52l92 1 8 20 12 27 9 20 11 25 1 4-4 2-227-1 2-6 9-17 10-24 13-29 8-18z" fill="#09ACED"/>
<path transform="translate(326,27)" d="m0 0h92l18 2-4 8-3 2-1-5-30 1h-30l-17-1-9-1-4 2-1 2-3 1v61l-1 23-2 11-7 18-5 10-1 3h-2l-1 5-5 10-5 13-4 11-6 14-4 8-6 16-5 10-5 13-1 3h-2l-2 9-4 9-5 11-3 8-5 12-5 14-6 11-6 16-10 21-6 16-1 17 5-3 5-11 7-16 12-28 8-17 8-16 7-19 9-20 6-16 3-7 5-13 11-25 14-27 5-10 3-1v-5l-1-2 10-22 5-10 6-13 6-10 4-5 10-3h25l6 2v3l3 2h-36l-2 5-13 27-15 35-15 33-5 12-11 25-12 27-17 38-7 17-28 63-7 16-8 18-4-2-4-5-5-12-3-12v-11l3-14 30-70 11-26 13-30 15-34 9-20 13-30 12-27 7-17 1-5 1-14v-75z" fill="#0796D4"/>
<path transform="translate(431,108)" d="m0 0 5 1 2 13 5 9v3l4 2 2 5 3 3 13 29 26 60 20 48 15 33 6 15 5 11 14 34 4 13 1 10-2 16-4 7-3 11-5 2-4-2-9-21-12-27-13-29-13-30-16-37-12-26-9-20-12-28-19-43-14-32-6-14v-4h3v2l5 2 1 3h2v2h3l5 8 9 19 4 8 5 12 5 11 4 10 9 17 10 21 7 14 13 30 3 10 1 1 5 11 2 7 4 11 3 7v5l-1 3 2 1 2 9 1 4h2l1-3v3l2-2 1-2 2 1 2 7v6l3 1 2 5 2 2 5 13 2 7 2 10 4 11 1 1 1-3 4-4-4-16-6-17-9-21-26-60-5-10-12-28-8-18-1-5v-2h-2l-1-5-2-1 1-1-2-2v-2l-3-9-5-11-3-7v-3l-2-1-2-6v-4h-2l-6-13-3-9-3-4v-4l-2-1v-4h-2l-3-6-3-17z" fill="#0795D4"/>
<path transform="translate(381,173)" d="m0 0 4 2 9 27 15 37 13 30 12 28 5 13-1 1h-114l2-5 8-16 11-25 20-48 12-35 2-7z" fill="#08ABEC"/>
<path transform="translate(323,48)" d="m0 0 2 3v55l-1 14-4 13-12 27-11 25-9 20-14 32-15 34-17 40-27 63-4 12-1 7v20l-4-2-3-5v-20l5-15 9-20 4-10v-9l-1-4-4-2 1-10 1-3h3l-1-5v-4l5-10h2l-1-7 1-11 4-2 2-9 1-9 1-5-1-1v-6l4-6 4-5 10-4 11-9 8-13 10-18 3-12 6-12 4-11 8-15 10-12 6-8 1-6v-39l3-25z" fill="#F1FDFD"/>
<path transform="translate(1961,158)" d="m0 0 2 1-1 49v93l-1 26h-1l-1-8-2-5v-5h2l1-9h-2l-2-6-3 12-3 15-6 12-5 5-3-1-3-12-4-3-2-5 14-69 8-37 8-40z" fill="#F8FBFB"/>
<path transform="translate(381,173)" d="m0 0 4 2 9 27 15 37 13 30 12 28 5 13-1 1h-114l2-5 8-16 11-25 20-48 12-35 2-7zm3 21-14 30-4 10-4 8-10 25-5 10-2 9-1 8 3 8 12 3h44l7-1 5-1 3 1 9-1 1-4-1-2h-2v-3l-3-3-8-18-8-21-6-20-6-15-6-16-2-6z" fill="#0794D2"/>
<path transform="translate(312,347)" d="m0 0h52l92 1v2l-17 3-17 1-3 1-101 1-4 4-5 10-8 21-10 23-4 6-2 5-7 9 1 1 209 1 3 2-2 1-11-1v2l-60 1-147 1h-2l2-8 9-19 10-24 10-22 8-18z" fill="#0681C8"/>
<path transform="translate(431,108)" d="m0 0 5 1 2 13 5 9v3l4 2 2 5 3 3 13 29 26 60 20 48 15 33 6 15 5 11 2 7-3 1-8-18-4-1-5-13-3-5-6-15-2-2-3-7-3-4h-3l-6-13-12-28-6-12v-6h-2l-1-5-2-1 1-1-2-2v-2l-3-9-5-11-3-7v-3l-2-1-2-6v-4h-2l-6-13-3-9-3-4v-4l-2-1v-4h-2l-3-6-3-17z" fill="#0796D4"/>
<path transform="translate(452,350)" d="m0 0 5 1 15 35 24 54 1 4-4 2-227-1 2-6 2-1-1 4 4-1 145-1 58-1 2 1v-2h12l-2-1-209-1v-1h205l-8-16-10-23-9-24-6-13-1-2-22-1-9-1 3-2 17-1z" fill="#0795D4"/>
<path transform="translate(266,446)" d="m0 0h22l108 1h76l-2 2-19 3-13 1-5 1-1 3-25 3-32 2h-39l-14-2-9-2-3-4-12-2-15-3h-14z" fill="#F0FEFE"/>
<path transform="translate(365,120)" d="m0 0h36l5 8 11 26 20 45 16 37 16 36 5 11-1 3-4-2-3-5-6-9-9-16-5-13-4-12-6-4-1 2h-3v-5l3-1-2-9-9-17-4-14-6-15-11-23-7-12-2-4-14-1-6 3-4 4-8 3h-4l1-6 5-9z" fill="#EAFEFE"/>
<path transform="translate(443,30)" d="m0 0h1l1 7-1 5v6l2 1 2 41 2 15 6 18 1 14 4 13 5 11 3 10 6 7 6 10 4 13 8 20 6 18v5l1 1v5l-4-2-10-24-26-60-16-35-2-5-1-6v-51l1-31z" fill="#F1FDFD"/>
<path transform="translate(1959,237)" d="m0 0h1l1 19 1 1v44l-1 26h-1l-1-8-2-5v-5h2l1-9h-2l-2-6-3 12-3 15-6 12-5 5-3-1-3-12-4-3-2-5 6-30h3l1 2v-7h3 2v11l3 8 3-7 2-12 2-22 4-11 2-1z" fill="#EEFBFB"/>
<path transform="translate(1794,224)" d="m0 0h3l11 53 9 42 4 20-4 2v-2h-2v-10l-3 7-2-2-3 5-7 1-8-7-1-14h2l1-10 3 4 2 2 1-2v-13l-2-35-1-4-1-14-1-6v-12z" fill="#F0FCFC"/>
<path transform="translate(326,27)" d="m0 0h92l18 2-4 8-3 2-1-5-30 1h-30l-17-1-9-1-4 2-1 2-3 1v53l-1 3-1 16h-2l-2 7-2-3v-58l2-1 1 11 1-2-1-10 1-1-1-10-2 3-1-10z" fill="#0797D6"/>
<path transform="translate(423,335)" d="m0 0h24l12 5 6 7 1 4h-4l-4-2-2 2v-3h-92v-1l15-1 1-1-13-2h-14l-16 1-8-4 3-2h36l15-1 29-1z" fill="#F9FCFC"/>
<path transform="translate(312,347)" d="m0 0h52l92 1v2l-17 3-17 1-3 1-101 1-8 8h-2l-3 9-5 9-1-3 4-10 2-12 5-9z" fill="#0680C7"/>
<path transform="translate(381,173)" d="m0 0 4 2 9 27 12 29v9h-2l-1-2h-2l-9-24-5-13-2-6-8 16-10 23-4 8h-2l-2 5-6 14-4 7-3-1 1-7 13-31 6-15 11-32 2-7z" fill="#046FBB"/>
<path transform="translate(269,438)" d="m0 0 1 2-1 2 4-1 145-1 58-1 2 1 1-2 8 1v4l6 2v1l-227-1 2-6z" fill="#08ABEC"/>
<path transform="translate(325,28)" d="m0 0h1l2 12 2-2 1 15-1 1 1 12h-3l-1-10v58l1-2 2-3 2 1v-16l2-1-1 29-2 11-7 18-5 10-1 3h-2l-1 5-5 10-5 13-4 11-6 14-4 8-6 16-5 10-3-2v-5l4-8 2-1 2-7 2-3 3-9 4-9h2v-5l5-12 9-19 5-13 4-11 1-11-1-3 4-13 1-14v-75z" fill="#0798D6"/>
<path transform="translate(318,135)" d="m0 0 3 1-1 12-6 14-3 9-9 19-5 12-1 5h-2l-1 4-4 9-2 7-9 17v5l1 5-4 10-1 3h-4l-1 2 1-6 4-8v-2h-2l-1 6-4 6-1-2 1-5h2l2-8h2l-1-4 3 1-1-6v-6l14-32 12-27 13-29z" fill="#0786CC"/>
<path transform="translate(1921,97)" d="m0 0h1v8l-2 9-4 21-4 27-5 22-3 16-3 9-1 11-1 1-3 15-3 6v7l-4 11-2 9-2 1-1 9-2 5h-1v-10l20-91 16-74 3-11z" fill="#034C96"/>
<path transform="translate(503,256)" d="m0 0 3 4 6 11 4 5 10 19 7 19 5 8 5 16 4 16 6 16v5l-3-1-15-36-11-26-17-38-5-12z" fill="#F1FDFD"/>
<path transform="translate(1439,449)" d="m0 0h235v2l-2 1h-204l-25-1z" fill="#ACB7C5"/>
<path transform="translate(303,362)" d="m0 0 2 1-1 6-4 10v2l8-17 4-2-2 5-9 24-10 23-4 6-2 5-7 9-1 2-5 1-2 1 2-6 8-17 10-24 10-22z" fill="#0795D3"/>
<path transform="translate(406,234)" d="m0 0 2 2 10 24 14 32 6 14v2l-7 1-1-5-4-2 1-5h-2v-3l-3-1-8-17-9-24-3-10 1-5 1 3h2l-1-4z" fill="#0795D4"/>
<path transform="translate(366,205)" d="m0 0 1 3-1 9-11 26-15 36-7 16-8 14-2 1-1-4 5-12 4-7 4-9 9-25 10-25 11-22z" fill="#EAFEFE"/>
<path transform="translate(326,28)" d="m0 0h6l2 2-1 1v44l1 14-1 5-1 16h-2l-2 7-2-3v-58l2-1 1 11 1-2-1-10 1-1-1-10-2 3z" fill="#0783C9"/>
<path transform="translate(576,233)" d="m0 0 5 5 9 10 11 17 5 6 7 2 3 9h-2v2l-8-2 2 3-5-2-5-4-2-5-1-1-4-5-1-5-3-7-8-15-3-6z" fill="#F0FDFD"/>
<path transform="translate(1803,251)" d="m0 0h2l8 34 1 7 2 6 2 12 2 5 4 27 6 27 4 24v5l-2-2-10-49-11-50-8-40z" fill="#035099"/>
<path transform="translate(312,347)" d="m0 0h52l10 1v1l-6 1v1l-27 1-9 1-17-2v2h-2l-2 6-10 22-2 1 1-4 4-12v-7l6-11z" fill="#0471BD"/>
<path transform="translate(397,208)" d="m0 0h2l5 12 4 4 8 15 8 28 6 15-3 1-14-32-16-39z" fill="#EBFEFE"/>
<path transform="translate(288,438)" d="m0 0 8 1h21l5-1 9 1h70l40-1h37v2l-60 1-145 1 2-2z" fill="#0792D1"/>
<path transform="translate(502,281)" d="m0 0 3 4 11 22 3 8 3 5 4 11 5 12-1 3-4-1-12-28-13-30v-4z" fill="#0683C9"/>
<path transform="translate(384,188)" d="m0 0h3l2 2 2 3 9 24 6 14v9h-2l-1-2h-2l-9-24-5-13-2-6-2 1z" fill="#0787CC"/>
<path transform="translate(315,139)" d="m0 0 1 3-12 27-14 32-9 20-7 16-2-3 2-8 3-1 3-9 3-8 3-9 2-2 3-8 4-8 8-21 2-4 9-16z" fill="#FAFCFC"/>
<path transform="translate(326,311)" d="m0 0h101l6 1-3 4-10 1h-11l-2-2v-2h-53l-4 4h-12l-2-4h-10z" fill="#FAFCFC"/>
<path transform="translate(381,173)" d="m0 0 4 2v2l-3 3h-3v3l4-1-2 10-4 10h-2l-1 4h-2l-3 12-4 10h-2l-1 6-3 5-2 5-2-1 3-9 8-20 11-32 2-7z" fill="#068FD2"/>
<path transform="translate(345,265)" d="m0 0 1 2 4-1-1 5-13 26h-2l2 10 1 2 19 1v1h-32l2-5 8-16z" fill="#0781C8"/>
<path transform="translate(303,362)" d="m0 0 2 1-1 6-4 10 1 5-7 14-5 11-3 2-1 5h-3l-1 3-1-4 10-24 10-22z" fill="#0787CD"/>
<path transform="translate(816,326)" d="m0 0 3 2 3 10v12l-2 7v13l-2-4-2-5-2-12-1-1 1-7h-3l1-9 3-5z" fill="#F1FDFD"/>
<path transform="translate(226,349)" d="m0 0 3 1-2 12-1 4h-2l-2 12h-2l-1 5-3 4-1 2-1-5 1-12 9-21h2z" fill="#0785CB"/>
<path transform="translate(585,218)" d="m0 0 3 1 6 12 10 19 12 22 1 9-2-1-8-16-18-35-4-7z" fill="#03529B"/>
<path transform="translate(516,294)" d="m0 0 3 4 13 31 5 11 2 7-3 1-11-24-5-12-5-13z" fill="#08ABEC"/>
<path transform="translate(515,380)" d="m0 0 3 3 12 27v3l-4-2-6-5-4-8-2-11z" fill="#EBFEFE"/>
<path transform="translate(31,449)" d="m0 0h68l5 1v1l-13 1h-35l-24-1z" fill="#86AAC5"/>
<path transform="translate(425,436)" d="m0 0h63l3 2-2 1h-62l-38-1v-1z" fill="#046BB8"/>
<path transform="translate(35,307)" d="m0 0h1l1 121 1 9 3 2h-7z" fill="#034E97"/>
<path transform="translate(470,402)" d="m0 0h2l2 2 3 4v3l3 3 2 6 1 4v3l8 9-3 1-24-1v-1h20l-8-16-6-13z" fill="#0784CA"/>
<path transform="translate(1930,294)" d="m0 0h1v8l-9 43-8 37-2 1 1-8 7-34 3-15z" fill="#0458A1"/>
<path transform="translate(506,74)" d="m0 0 3 1 10 19-1 4-3 3h-3l-1 6-2-3-1-9 2-5v-7l-3-3z" fill="#F1FDFD"/>
<path transform="translate(345,265)" d="m0 0 1 2 4-1-1 5-12 24-2 2-1-7z" fill="#0682C9"/>
<path transform="translate(383,177)" d="m0 0h3l3 10v5l-2-4h-3l-1 11-3 6-4-1 3-9 4-13-4 1v-3h3z" fill="#046EB9"/>
<path transform="translate(1439,449)" d="m0 0h53l-1 3h-23l-25-1z" fill="#90ADC5"/>
<path transform="translate(244,299)" d="m0 0h1l-1 8-11 25-2 1 2-15 8-16z" fill="#EEFEFE"/>
<path transform="translate(1569,211)" d="m0 0h86v5l-7-2-12-1-67-1z" fill="#03448E"/>
<path transform="translate(318,228)" d="m0 0 1 3-5 16-6 9-5 8h-1v-5h2l3-9 7-15 3-6z" fill="#E9FEFE"/>
<path transform="translate(938,59)" d="m0 0h30l13 2 1 2-13-1h-29l-15 1v-2z" fill="#045CA6"/>
<path transform="translate(366,211)" d="m0 0 1 3-8 20-9 21-2-4 5-12 7-17z" fill="#FAFCFC"/>
<path transform="translate(543,420)" d="m0 0 4 1 1 8-3 3-3 1-4-2-3-9 7-1z" fill="#0680C7"/>
<path transform="translate(319,126)" d="m0 0 2 1-1 6-3 6-4 4-8 16-2-1 3-10 5-9 5-7z" fill="#EBFEFE"/>
<path transform="translate(325,28)" d="m0 0h1l2 12 2-2 1 15-1 1 1 12h-3l-1-10h-1l-1-12z" fill="#0794D2"/>
<path transform="translate(326,28)" d="m0 0h6l2 2-1 1-1 22h-1l-2-11-2 4z" fill="#0681C8"/>
<path transform="translate(1929,64)" d="m0 0h11l7 1v1l-13 1-3 1-5 14-2 11-2 1 1-11 4-17z" fill="#03539D"/>
<path transform="translate(145,217)" d="m0 0h80v5l-1-2-4-1-75-1z" fill="#03448E"/>
<path transform="translate(1852,234)" d="m0 0h2l4 16 5 24v7l-2-4-7-31z" fill="#0457A0"/>
<path transform="translate(427,303)" d="m0 0 4 1 2 4h5v3h-19l3-2 1-4z" fill="#057AC2"/>
<path transform="translate(469,377)" d="m0 0 3 1v2h2l4 7v9l-3-1-6-14z" fill="#ECFEFE"/>
<path transform="translate(1032,308)" d="m0 0 7 1 20 8 16 6v2l-6-1-25-10-7-3-5-2z" fill="#0458A1"/>
<path transform="translate(368,215)" d="m0 0 1 3-4 10h-2l-1 6-3 5-2 5-2-1 3-9 7-17z" fill="#0790D4"/>
<path transform="translate(537,127)" d="m0 0 4 5 12 22v5l-3-3-13-26z" fill="#03529B"/>
<path transform="translate(335,292)" d="m0 0 1 2-7 14 6 2v1h-11l2-5 7-13z" fill="#0473BE"/>
<path transform="translate(461,378)" d="m0 0 4 2 2 6 2 3v9h-2l-5-13v-5z" fill="#0784C9"/>
<path transform="translate(295,376)" d="m0 0 1 4-7 16-3-1 3-9 5-9z" fill="#EDFEFE"/>
<path transform="translate(375,188)" d="m0 0h1l-1 10-3 10-4 8-2 1 1-6z" fill="#09ACED"/>
<path transform="translate(389,190)" d="m0 0 2 3 5 14v5l-5-5v-5h-2l-1-10z" fill="#0576C0"/>
<path transform="translate(1803,251)" d="m0 0h2l4 17-1 9h-1l-4-20z" fill="#03559E"/>
<path transform="translate(382,186)" d="m0 0 2 3-1 10-3 6-4-1 3-9z" fill="#03509A"/>
<path transform="translate(208,384)" d="m0 0h2l-1 23-2-2-1-5v-9z" fill="#EDFEFE"/>
<path transform="translate(384,188)" d="m0 0h3l2 7v7h2l1 9-2-2-4-13h-3z" fill="#068FD0"/>
<path transform="translate(1930,294)" d="m0 0h1v8l-5 24h-1v-10z" fill="#045BA5"/>
<path transform="translate(224,257)" d="m0 0h1v23h-27v-1l25-1z" fill="#03448E"/>
<path transform="translate(302,158)" d="m0 0 2 3-8 20-3 7-1-3 6-17z" fill="#E9FFFF"/>
<path transform="translate(285,201)" d="m0 0 1 3-4 10-5 13-2-1 2-7 3-8z" fill="#E9FFFF"/>
<path transform="translate(1924,322)" d="m0 0h1v9l-4 18-2 1 2-16z" fill="#03539C"/>
<path transform="translate(503,64)" d="m0 0 8 1 2 2-3 3 1 5h-3l-5-9z" fill="#04569F"/>
<path transform="translate(1017,301)" d="m0 0 9 3 3 3-12 1z" fill="#03509A"/>
<path transform="translate(1960,301)" d="m0 0h1v26h-1l-1-8-2-5v-5h2z" fill="#F1FEFE"/>
<path transform="translate(1929,64)" d="m0 0h11l7 1v1l-13 1-3 1-3 3h-1v-5z" fill="#045AA2"/>
<path transform="translate(483,431)" d="m0 0 5 1 3 5-27-1v-1h20z" fill="#0787CB"/>
<path transform="translate(1946,216)" d="m0 0h1v10l-3 13h-2l1-8 2-11z" fill="#045EA7"/>
<path transform="translate(361,242)" d="m0 0 1 3-7 17-4 2 2-5 6-13z" fill="#078DCE"/>
<path transform="translate(483,217)" d="m0 0 2 2 4 11v5l-3-3-4-11z" fill="#08A7E8"/>
<path transform="translate(455,153)" d="m0 0 3 4 4 9-1 3-3-3-4-7z" fill="#08AAEB"/>
<path transform="translate(519,313)" d="m0 0 1 2h2l5 11v3h-3l-5-13z" fill="#079FDE"/>
<path transform="translate(567,185)" d="m0 0 3 4 5 9 4 7v2h-2l-10-19z" fill="#045DA6"/>
<path transform="translate(1921,97)" d="m0 0h1v8l-4 9h-1l1-9 2-7z" fill="#034E98"/>
<path transform="translate(1723,427)" d="m0 0 2 3v8h10v1h-13v-9z" fill="#045AA2"/>
<path transform="translate(311,362)" d="m0 0 1 2-4 9-4 4-1-2 5-11z" fill="#078DCE"/>
<path transform="translate(596,274)" d="m0 0 4 2 5 4 3 5-5-2-5-4z" fill="#F5FDFD"/>
<path transform="translate(491,235)" d="m0 0 2 3 4 11h-3l-5-11 2-1z" fill="#08A5E5"/>
<path transform="translate(221,424)" d="m0 0h1l1 8h2v3l-4-2-3-4v-4z" fill="#0682C9"/>
<path transform="translate(1852,234)" d="m0 0h2l3 12v7l-2-4-3-12z" fill="#034F99"/>
<path transform="translate(432,302)" d="m0 0h4l2 6-7 1-1-6z" fill="#0786CC"/>
<path transform="translate(275,254)" d="m0 0 1 2-4 11h-2l-1 2 1-6 4-8z" fill="#0781C8"/>
<path transform="translate(375,113)" d="m0 0h16l-4 2-9 1z" fill="#0781C8"/>
<path transform="translate(484,303)" d="m0 0 2 2 5 11v3h-2l-5-11z" fill="#078DD1"/>
<path transform="translate(481,302)" d="m0 0 3 3 2 7-5-1z" fill="#ECFEFE"/>
<path transform="translate(554,160)" d="m0 0 3 2 5 11v2h-2l-6-12z" fill="#04549E"/>
<path transform="translate(1820,349)" d="m0 0 3 1 2 8h-3l-3-6z" fill="#ECF8F9"/>
<path transform="translate(273,237)" d="m0 0 2 4v6l-6 1 3-9z" fill="#079CDB"/>
<path transform="translate(381,182)" d="m0 0h2l-2 10-3 2 1-7z" fill="#08A2E5"/>
<path transform="translate(1313,423)" d="m0 0h1l2 16-4-1z" fill="#03448E"/>
<path transform="translate(35,428)" d="m0 0h2l1 9 3 2h-6z" fill="#03448E"/>
<path transform="translate(303,362)" d="m0 0 2 1-1 6-4 4-1-2z" fill="#078CD1"/>
<path transform="translate(1032,308)" d="m0 0 7 1 8 4-3 1-7-3-5-2z" fill="#034F99"/>
<path transform="translate(501,348)" d="m0 0 3 3 1 5-5-1-1-4z" fill="#ECFEFE"/>
<path transform="translate(437,348)" d="m0 0h19v2l-5 1-1-1-13-1z" fill="#046DBA"/>
<path transform="translate(368,215)" d="m0 0 1 3-3 6h-3l2-7z" fill="#0794D6"/>
</svg>
